<svg xmlns="http://www.w3.org/2000/svg" viewBox="0 0 144 72"><title>ONE BCG-Logo</title><path d="M95.818,4.629q.942,1.643.977,5.63V38.617L69.817,4.427a16.14,16.14,0,0,1-1.753-2.682H57.374A8.586,8.586,0,0,1,60.24,4.627q.944,1.61.978,5.632v30.7a13.234,13.234,0,0,1-.809,5.3c-.674,1.3-1.687,3.377-3.034,4.226H70.392A8.573,8.573,0,0,1,67.525,47.6c-.63-1.138-.956-4.024-.978-6.638V11.969L92.075,44.214a19.91,19.91,0,0,0,10.048,7.105V10.259a13.082,13.082,0,0,1,.81-5.294,8.33,8.33,0,0,1,3.036-3.219H92.951A8.566,8.566,0,0,1,95.818,4.629Z" style="fill:#cc2127"/><path d="M137.654,43.781a27.12,27.12,0,0,1-9.172,1.373,56.21,56.21,0,0,1-9-.737V27.155h6.476a11.57,11.57,0,0,1,3.946.535,4.067,4.067,0,0,1,1.821,1.475V21.49a6.212,6.212,0,0,1-2.5.47h-9.747V7.376a47.568,47.568,0,0,1,7.454-.468,17.7,17.7,0,0,1,5.8.738A9.035,9.035,0,0,1,135.9,9.756V1.309a7.536,7.536,0,0,1-2.732.436H108.888a5.163,5.163,0,0,1,2.5,2.481,20.4,20.4,0,0,1,.775,6.805V41.168a23.138,23.138,0,0,1-.641,6.468,5.324,5.324,0,0,1-2.631,2.849h30.419L142.645,41A18.006,18.006,0,0,1,137.654,43.781Z" style="fill:#cc2127"/><polygon points="33.411 26.422 41.875 8.369 26.497 21.063 33.411 26.422" style="fill:#cc2127"/><path d="M52.429,15.26A21.93,21.93,0,0,0,45.1,6.51l-3.179,6.745a22.871,22.871,0,0,1,4.843,14.072,19.341,19.341,0,0,1-4.418,13.039q-5.092,6-13.961,6Q18,46.365,12.737,36.88a22.874,22.874,0,0,1-2.967-11.3,21.215,21.215,0,0,1,1.786-8.648A15.881,15.881,0,0,1,18.066,9.46,19.071,19.071,0,0,1,28.115,6.644,18.419,18.419,0,0,1,37.5,9.208l5.18-4.248c-.379-.218-.581-.328-.979-.527A27.864,27.864,0,0,0,28.958,1.45,30.277,30.277,0,0,0,16.144,4.165,24.282,24.282,0,0,0,5.452,13.349,24.508,24.508,0,0,0,1.508,26.757a23.233,23.233,0,0,0,2.023,9.518A24.512,24.512,0,0,0,11.456,46.2,26.94,26.94,0,0,0,28.08,51.562a28.432,28.432,0,0,0,11.029-2.147A25.291,25.291,0,0,0,50.3,40.633a24.249,24.249,0,0,0,4.723-14.411A24.757,24.757,0,0,0,52.429,15.26Z" style="fill:#cc2127"/><path d="M4.418,60.653a4.045,4.045,0,0,1,2.352.455,2.092,2.092,0,0,1,.886,1.76,2.432,2.432,0,0,1-2.032,2.376,2.974,2.974,0,0,1,1.394.44A2.194,2.194,0,0,1,8,67.589,2.648,2.648,0,0,1,6.944,69.7c-.624.469-1.307.631-2.889.631H2.037V60.653Zm-.479,4.341a3.743,3.743,0,0,0,1.67-.249,1.938,1.938,0,0,0,.857-1.716,1.8,1.8,0,0,0-.537-1.364c-.406-.337-.886-.352-1.742-.352H3.17v3.681Zm.232,4.678a3.441,3.441,0,0,0,1.786-.323,2.14,2.14,0,0,0,.784-1.774,1.905,1.905,0,0,0-.682-1.569,3.4,3.4,0,0,0-2.105-.381H3.17v4.047Z" style="fill:#cc2127"/><path d="M10.517,62.8v4.528a3.446,3.446,0,0,0,.294,1.859,1.614,1.614,0,0,0,1.4.741,1.657,1.657,0,0,0,1.4-.719,3.248,3.248,0,0,0,.35-1.893V62.8h.621v4.426c0,.5.215,3.217-2.541,3.217A2.3,2.3,0,0,1,9.874,69.18a3.907,3.907,0,0,1-.237-1.654V62.8Z" style="fill:#cc2127"/><path d="M19.415,63.5a3.105,3.105,0,0,0-1.22-.285,1.2,1.2,0,0,0-1.355,1.152c0,.411.181.833.994,1.471l.576.456c.982.776,1.581,1.255,1.581,2.213a1.993,1.993,0,0,1-2.168,1.939,3.344,3.344,0,0,1-1.762-.5l.237-.479a3.181,3.181,0,0,0,1.536.468,1.224,1.224,0,0,0,1.344-1.221c0-.582-.373-.958-1.118-1.563l-.6-.479a2.894,2.894,0,0,1-1.423-2.144A1.951,1.951,0,0,1,18.184,62.7a3.349,3.349,0,0,1,1.412.308Z" style="fill:#cc2127"/><path d="M22.136,62.8v7.528h-.881V62.8Z" style="fill:#cc2127"/><path d="M24.914,62.8l3.715,5.965V62.8h.621v7.528h-.587l-3.715-5.965v5.965h-.621V62.8Z" style="fill:#cc2127"/><path d="M35.156,62.8v.513H32.321V66.18h2.654v.513H32.321v3.08H35.2v.559H31.44V62.8Z" style="fill:#cc2127"/><path d="M39.367,63.5a3.106,3.106,0,0,0-1.22-.285,1.2,1.2,0,0,0-1.355,1.152c0,.411.181.833.994,1.471l.576.456c.982.776,1.581,1.255,1.581,2.213a1.993,1.993,0,0,1-2.168,1.939,3.344,3.344,0,0,1-1.762-.5l.237-.479a3.181,3.181,0,0,0,1.536.468,1.224,1.224,0,0,0,1.344-1.221c0-.582-.373-.958-1.118-1.563l-.6-.479a2.894,2.894,0,0,1-1.423-2.144A1.951,1.951,0,0,1,38.136,62.7a3.35,3.35,0,0,1,1.412.308Z" style="fill:#cc2127"/><path d="M43.952,63.5a3.105,3.105,0,0,0-1.22-.285,1.2,1.2,0,0,0-1.355,1.152c0,.411.181.833.994,1.471l.576.456c.982.776,1.581,1.255,1.581,2.213a1.993,1.993,0,0,1-2.168,1.939,3.344,3.344,0,0,1-1.762-.5l.237-.479a3.181,3.181,0,0,0,1.536.468,1.224,1.224,0,0,0,1.344-1.221c0-.582-.373-.958-1.118-1.563L42,66.67a2.894,2.894,0,0,1-1.423-2.144A1.951,1.951,0,0,1,42.721,62.7a3.349,3.349,0,0,1,1.412.308Z" style="fill:#cc2127"/><path d="M54.306,61.621a3.862,3.862,0,0,0-1.713-.44c-1.423,0-2.831,1.232-2.831,4.341,0,3.388,1.568,4.3,2.758,4.3a3.472,3.472,0,0,0,1.757-.587l.334.587a4.447,4.447,0,0,1-2.279.66c-2.337,0-3.833-2.024-3.833-4.927,0-2.684,1.379-5.03,4.036-5.03A4.359,4.359,0,0,1,54.6,61Z" style="fill:#cc2127"/><path d="M55.156,66.567c0-2.658,1.445-3.867,2.959-3.867,1.208,0,2.812.776,2.812,3.776,0,2.692-1.378,3.969-2.936,3.969-1.445,0-2.834-1.152-2.834-3.867Zm.982.023c0,2.589,1.039,3.365,1.9,3.365.779,0,1.908-.627,1.908-3.376,0-.627-.034-3.388-1.863-3.388-1.174,0-1.942,1.2-1.942,3.388Z" style="fill:#cc2127"/><path d="M63.139,62.8l3.715,5.965V62.8h.621v7.528h-.587l-3.715-5.965v5.965h-.621V62.8Z" style="fill:#cc2127"/><path d="M72.41,63.5a3.106,3.106,0,0,0-1.22-.285,1.2,1.2,0,0,0-1.355,1.152c0,.411.181.833.994,1.471l.576.456c.982.776,1.581,1.255,1.581,2.213a1.993,1.993,0,0,1-2.168,1.939,3.344,3.344,0,0,1-1.762-.5l.237-.479a3.181,3.181,0,0,0,1.536.468,1.224,1.224,0,0,0,1.344-1.221c0-.582-.373-.958-1.118-1.563l-.6-.479a2.894,2.894,0,0,1-1.423-2.144A1.951,1.951,0,0,1,71.179,62.7a3.35,3.35,0,0,1,1.412.308Z" style="fill:#cc2127"/><path d="M75.029,62.8v4.528a3.446,3.446,0,0,0,.294,1.859,1.614,1.614,0,0,0,1.4.741,1.657,1.657,0,0,0,1.4-.719,3.249,3.249,0,0,0,.35-1.893V62.8h.621v4.426c0,.5.215,3.217-2.541,3.217a2.3,2.3,0,0,1-2.168-1.266,3.906,3.906,0,0,1-.237-1.654V62.8Z" style="fill:#cc2127"/><path d="M82.064,62.8v6.969h2.789v.559h-3.67V62.8Z" style="fill:#cc2127"/><path d="M89.381,62.8v.513H87.326v7.015h-.881V63.317H84.378V62.8Z" style="fill:#cc2127"/><path d="M91.492,62.8v7.528h-.881V62.8Z" style="fill:#cc2127"/><path d="M94.27,62.8l3.715,5.965V62.8h.621v7.528h-.587L94.3,64.366v5.965h-.621V62.8Z" style="fill:#cc2127"/><path d="M104.8,63.556a3.021,3.021,0,0,0-1.31-.342c-1.2,0-2.281.992-2.281,3.4,0,1.346.384,3.319,2.168,3.319a2.052,2.052,0,0,0,.994-.24v-2.43h-1.355V66.75h2.236V69.9a4.077,4.077,0,0,1-1.931.547c-1.863,0-3.094-1.517-3.094-3.833,0-2.544,1.468-3.912,3.218-3.912a3.369,3.369,0,0,1,1.57.365Z" style="fill:#cc2127"/><path d="M115.5,61.621a3.884,3.884,0,0,0-1.684-.44c-1.539,0-2.933,1.276-2.933,4.37,0,1.73.494,4.267,2.787,4.267a2.637,2.637,0,0,0,1.277-.308V66.387h-1.742v-.66h2.875v4.047a5.242,5.242,0,0,1-2.483.7c-2.4,0-3.978-1.95-3.978-4.927,0-3.27,1.887-5.03,4.138-5.03a4.332,4.332,0,0,1,2.018.469Z" style="fill:#cc2127"/><path d="M119.486,62.8a3.3,3.3,0,0,1,1.818.331,1.647,1.647,0,0,1,.79,1.494,2.092,2.092,0,0,1-1.942,2.122l2.575,3.582h-1.073L119.3,66.807h-.519v3.525H117.9V62.8Zm-.7.513v3.034h.508c.666,0,1.875,0,1.875-1.642,0-1.4-.983-1.392-1.773-1.392Z" style="fill:#cc2127"/><path d="M123.189,66.567c0-2.658,1.445-3.867,2.959-3.867,1.208,0,2.812.776,2.812,3.776,0,2.692-1.378,3.969-2.936,3.969-1.445,0-2.834-1.152-2.834-3.867Zm.982.023c0,2.589,1.039,3.365,1.9,3.365.779,0,1.908-.627,1.908-3.376,0-.627-.034-3.388-1.863-3.388-1.174,0-1.942,1.2-1.942,3.388Z" style="fill:#cc2127"/><path d="M131.364,62.8v4.528a3.446,3.446,0,0,0,.294,1.859,1.614,1.614,0,0,0,1.4.741,1.657,1.657,0,0,0,1.4-.719,3.249,3.249,0,0,0,.35-1.893V62.8h.621v4.426c0,.5.215,3.217-2.541,3.217a2.3,2.3,0,0,1-2.168-1.266,3.906,3.906,0,0,1-.237-1.654V62.8Z" style="fill:#cc2127"/><path d="M139.381,62.8a3.142,3.142,0,0,1,1.908.376,1.816,1.816,0,0,1,.689,1.517c0,.787-.35,2.19-2.529,2.19H138.4v3.445h-.881V62.8Zm-.982.513v3.034h.881c.824,0,1.716-.171,1.716-1.654,0-1.392-.937-1.38-1.716-1.38Z" style="fill:#cc2127"/></svg>